<?xml version="1.0" encoding="UTF-8"?>
<!DOCTYPE svg PUBLIC "-//W3C//DTD SVG 1.1//EN" "http://www.w3.org/Graphics/SVG/1.1/DTD/svg11.dtd">
<!-- Creator: CorelDRAW (OEM Version) -->
<svg xmlns="http://www.w3.org/2000/svg" xml:space="preserve" width="1.34926in" height="0.444941in" version="1.1" style="shape-rendering:geometricPrecision; text-rendering:geometricPrecision; image-rendering:optimizeQuality; fill-rule:evenodd; clip-rule:evenodd"
viewBox="0 0 8520.76 2809.87"
 xmlns:xlink="http://www.w3.org/1999/xlink"
 xmlns:xodm="http://www.corel.com/coreldraw/odm/2003">
 <defs>
  <style type="text/css">
   <![CDATA[
    .str0 {stroke:#00AFEF;stroke-width:43.86;stroke-miterlimit:2.61313}
    .str1 {stroke:#FEFEFE;stroke-width:18.95;stroke-miterlimit:2.61313}
    .fil1 {fill:#FEFEFE;fill-rule:nonzero}
    .fil0 {fill:#00AFEF;fill-rule:nonzero}
   ]]>
  </style>
 </defs>
 <g id="Layer_x0020_1">
  <metadata id="CorelCorpID_0Corel-Layer"/>
  <g id="_2446167373616">
   <path class="fil0 str0" d="M566.25 2787.79c-21.9,0 -43.29,-0.27 -65.02,-0.77 -45.03,-0.57 -89.93,-4.53 -134.36,-11.78 -41.45,-7.19 -81.57,-20.54 -119.09,-39.61 -37.19,-18.95 -71.11,-43.76 -100.45,-73.52 -29.76,-29.41 -54.55,-63.52 -73.37,-100.99 -19.02,-37.69 -32.17,-78.12 -39.03,-119.81 -7.38,-44.83 -11.39,-90.15 -11.96,-135.6 -0.45,-15.24 -1.04,-66.01 -1.04,-66.01l0 -1670.43c0,0 0.62,-50 1.04,-64.69 0.55,-45.35 4.53,-90.6 11.91,-135.35 6.86,-41.82 20.04,-82.37 39.06,-120.19 18.75,-37.44 43.39,-71.58 72.97,-101.09 29.56,-29.79 63.57,-54.75 100.82,-73.94 37.44,-19.02 77.5,-32.27 118.84,-39.33 44.6,-7.33 89.66,-11.29 134.83,-11.83l64.87 -0.9 7387.82 0 65.66 0.92c44.73,0.52 89.38,4.45 133.59,11.74 41.77,7.14 82.25,20.51 120.14,39.63 74.59,38.66 135.3,99.85 173.59,174.98 18.67,37.57 31.7,77.77 38.49,119.24 7.43,45.13 11.56,90.72 12.43,136.45 0.25,20.49 0.25,42.49 0.25,64.37 0.6,27.13 0.6,52.93 0.6,78.96l0 1513.35c0,26.28 0,51.91 -0.6,77.75 0,23.52 0,45.05 -0.32,67.23 -0.8,44.93 -4.92,89.71 -12.23,134.04 -6.71,42.02 -19.79,82.74 -38.89,120.76 -18.95,37.05 -43.53,70.86 -72.95,100.2 -29.41,29.91 -63.35,54.9 -100.64,73.94 -37.77,19.22 -78.14,32.62 -119.86,39.76 -44.45,7.28 -89.38,11.24 -134.38,11.78 -21.51,0.5 -43.04,0.77 -64.54,0.77l-77.87 0.15 -7310.29 -0.15z"/>
   <polygon class="fil1 str1" points="2425.69,1220.74 2061.95,1220.74 2061.95,1327.33 2356.18,1327.33 2356.18,1525.41 2061.95,1525.41 2061.95,1787.21 1792.04,1787.21 1792.04,1022.66 2425.69,1022.66 "/>
   <path id="_1" class="fil1 str1" d="M3062.98 1011.07c81.1,0 150.62,15.44 208.52,46.32 57.93,30.9 102.34,75.68 133.22,134.38 30.9,58.7 46.34,129.76 46.34,213.15 0,83.41 -15.44,154.47 -46.34,213.15 -30.88,58.7 -75.28,103.5 -133.22,134.38 -57.91,30.9 -127.42,46.34 -208.52,46.34 -80.31,0 -149.62,-15.44 -207.93,-46.34 -58.3,-30.88 -103.11,-75.68 -134.38,-134.38 -31.28,-58.68 -46.92,-129.73 -46.92,-213.15 0,-83.39 15.64,-154.45 46.92,-213.15 31.28,-58.7 76.08,-103.48 134.38,-134.38 58.3,-30.88 127.62,-46.32 207.93,-46.32zm0 202.71c-26.26,0 -47.69,6.76 -64.27,20.29 -16.61,13.5 -28.97,34.16 -37.07,61.98 -8.13,27.8 -12.18,64.1 -12.18,108.87 0,44.03 4.05,80.13 12.18,108.33 8.11,28.19 20.46,49.03 37.07,62.55 16.58,13.5 38.02,20.26 64.27,20.26 26.28,0 47.71,-6.76 64.3,-20.26 16.61,-13.53 28.77,-34.36 36.5,-62.55 7.73,-28.19 11.59,-64.3 11.59,-108.33 0,-44.78 -3.85,-81.08 -11.59,-108.87 -7.73,-27.82 -19.89,-48.48 -36.5,-61.98 -16.58,-13.53 -38.02,-20.29 -64.3,-20.29z"/>
   <path id="_2" class="fil1 str1" d="M4152.07 1022.66c99.63,0 176.08,22.2 229.36,66.61 53.31,44.41 79.93,103.28 79.93,176.65 0,84.19 -26.06,147.51 -78.19,189.98 -52.11,42.49 -127.99,63.72 -227.62,63.72l-26.65 13.9 -127.42 0 0 253.7 -264.12 0 0 -764.56 414.71 0zm-46.34 333.61c28.59,0 50,-5.2 64.3,-15.64 14.3,-10.42 21.43,-28.77 21.43,-55.02 0,-25.48 -7.14,-43.63 -21.43,-54.45 -14.3,-10.82 -35.7,-16.21 -64.3,-16.21l-104.25 0 0 141.32 104.25 0zm159.87 56.76l238.63 374.19 -293.08 0 -178.39 -334.78 232.84 -39.41z"/>
   <polygon id="_3" class="fil1 str1" points="5731.18,1022.66 5731.18,1787.21 5496,1787.21 5496,1521.93 5499.48,1264.77 5496,1264.77 5347.72,1787.21 5132.26,1787.21 4986.29,1264.77 4981.67,1264.77 4985.15,1521.93 4985.15,1787.21 4748.82,1787.21 4748.82,1022.66 5126.47,1022.66 5214.51,1362.06 5248.1,1504.55 5250.41,1504.55 5284.02,1362.06 5372.06,1022.66 "/>
   <path id="_4" class="fil1 str1" d="M6376.57 1011.07c73.37,0 139.21,9.07 197.51,27.22 58.3,18.15 109.87,45.37 154.65,81.65l-108.87 173.77c-36.3,-25.48 -74.34,-45.95 -114.12,-61.39 -39.78,-15.44 -82.82,-23.17 -129.16,-23.17 -20.09,0 -36.1,1.54 -48.08,4.62 -11.96,3.11 -20.46,7.36 -25.48,12.75 -5.02,5.4 -7.51,11.59 -7.51,18.52 0,9.27 7.14,16.24 21.41,20.86 14.3,4.65 32.25,9.65 53.88,15.07l105.42 24.32c77.99,17.78 136.89,44.03 176.65,78.79 39.78,34.73 59.67,83.02 59.67,144.8 0,61.78 -15.07,112.55 -45.18,152.33 -30.13,39.76 -70.86,69.32 -122.23,88.61 -51.34,19.32 -109.47,28.97 -174.34,28.97 -48.66,0 -97.31,-4.45 -145.97,-13.33 -48.66,-8.88 -93.83,-22 -135.53,-39.38 -41.69,-17.38 -77.62,-38.41 -107.73,-63.13l106.56 -177.25c22.4,17.75 49.43,33.79 81.1,48.08 31.65,14.27 64.49,25.66 98.46,34.16 33.99,8.5 65.66,12.75 95,12.75 18.52,0 33.22,-1.57 44.01,-4.65 10.82,-3.08 18.35,-7.14 22.6,-12.16 4.25,-5.02 6.36,-11.01 6.36,-17.95 0,-10.82 -4.43,-18.92 -13.33,-24.34 -8.88,-5.4 -24.89,-10.82 -48.06,-16.21l-115.84 -25.48c-40.95,-9.27 -79.93,-21.63 -117,-37.07 -37.07,-15.44 -67.2,-38.04 -90.38,-67.78 -23.15,-29.74 -34.73,-70.09 -34.73,-121.06 0,-52.51 14.07,-98.46 42.27,-137.84 28.19,-39.38 69.12,-70.09 122.8,-92.09 53.68,-22.03 118.74,-33.02 195.2,-33.02z"/>
  </g>
 </g>
</svg>
