<?xml version="1.0" encoding="UTF-8"?>
<!DOCTYPE svg PUBLIC "-//W3C//DTD SVG 1.1//EN" "http://www.w3.org/Graphics/SVG/1.1/DTD/svg11.dtd">
<!-- Creator: CorelDRAW (OEM Version) -->
<svg xmlns="http://www.w3.org/2000/svg" xml:space="preserve" width="1.34231in" height="0.437996in" version="1.1" style="shape-rendering:geometricPrecision; text-rendering:geometricPrecision; image-rendering:optimizeQuality; fill-rule:evenodd; clip-rule:evenodd"
viewBox="0 0 2314.88 755.35"
 xmlns:xlink="http://www.w3.org/1999/xlink"
 xmlns:xodm="http://www.corel.com/coreldraw/odm/2003">
 <defs>
  <style type="text/css">
   <![CDATA[
    .str0 {stroke:#FEFEFE;stroke-width:5.17;stroke-miterlimit:2.61313}
    .fil1 {fill:#FEFEFE;fill-rule:nonzero}
    .fil0 {fill:#ED3237;fill-rule:nonzero}
   ]]>
  </style>
 </defs>
 <g id="Layer_x0020_1">
  <metadata id="CorelCorpID_0Corel-Layer"/>
  <g id="_2446441171024">
   <path class="fil0" d="M148.64 755.31c-5.98,0 -11.82,-0.07 -17.75,-0.21 -12.3,-0.16 -24.56,-1.24 -36.69,-3.22 -11.32,-1.96 -22.28,-5.61 -32.52,-10.82 -10.16,-5.17 -19.42,-11.95 -27.43,-20.08 -8.13,-8.03 -14.9,-17.35 -20.04,-27.58 -5.19,-10.29 -8.79,-21.33 -10.66,-32.72 -2.02,-12.24 -3.11,-24.62 -3.27,-37.03 -0.12,-4.16 -0.29,-18.03 -0.29,-18.03l0 -456.16c0,0 0.17,-13.65 0.29,-17.67 0.15,-12.38 1.24,-24.74 3.25,-36.96 1.87,-11.42 5.47,-22.49 10.67,-32.82 5.12,-10.23 11.85,-19.55 19.93,-27.61 8.07,-8.13 17.36,-14.95 27.53,-20.19 10.23,-5.19 21.16,-8.81 32.45,-10.74 12.18,-2 24.48,-3.08 36.82,-3.23l17.71 -0.24 2017.47 0 17.93 0.25c12.21,0.14 24.41,1.22 36.48,3.2 11.41,1.95 22.46,5.6 32.81,10.82 20.37,10.56 36.95,27.27 47.4,47.78 5.1,10.26 8.66,21.24 10.51,32.56 2.03,12.32 3.16,24.78 3.39,37.26 0.07,5.59 0.07,11.6 0.07,17.58 0.16,7.41 0.16,14.45 0.16,21.56l0 413.27c0,7.18 0,14.18 -0.16,21.23 0,6.42 0,12.3 -0.09,18.36 -0.22,12.27 -1.34,24.5 -3.34,36.6 -1.83,11.47 -5.4,22.6 -10.62,32.98 -5.17,10.12 -11.89,19.35 -19.92,27.36 -8.03,8.17 -17.3,14.99 -27.48,20.19 -10.31,5.25 -21.34,8.91 -32.73,10.86 -12.14,1.99 -24.41,3.07 -36.7,3.22 -5.87,0.14 -11.75,0.21 -17.63,0.21l-21.26 0.04 -1996.3 -0.04z"/>
   <path class="fil1 str0" d="M251.43 456.92l48.4 -208.79 68.33 0c18.77,0 33.69,5 44.76,15.03 11.07,10.01 16.61,23.89 16.61,41.6 0,11.81 -2.69,22.35 -8.07,31.63 -5.38,9.28 -12.45,16.82 -21.2,22.62 -8.75,5.81 -18.19,9.65 -28.31,11.55l-15.82 2.21 -64.85 0 5.38 -23.72 56.94 0c11.18,0 20.46,-2.06 27.84,-6.17 7.38,-4.11 12.86,-9.59 16.44,-16.45 3.58,-6.85 5.38,-14.39 5.38,-22.62 0,-10.54 -3.59,-18.51 -10.76,-23.89 -7.17,-5.38 -16.97,-8.07 -29.42,-8.07l-43.34 0 -43.03 185.06 -25.3 0zm133.5 0l-35.75 -88.9 25.62 -3.16 37.65 92.06 -27.52 0z"/>
   <path id="_1" class="fil1 str0" d="M496.86 459.77c-14.56,0 -27.05,-3.16 -37.49,-9.49 -10.44,-6.33 -18.4,-14.87 -23.88,-25.62 -5.49,-10.76 -8.23,-22.78 -8.23,-36.07 0,-16.45 3.27,-31.74 9.81,-45.87 6.54,-14.13 16.08,-25.47 28.62,-34.01 12.55,-8.54 27.79,-12.81 45.71,-12.81 12.87,0 23.89,2.63 33.06,7.91 9.17,5.28 16.19,12.49 21.03,21.67 4.85,9.17 7.28,19.56 7.28,31.16 0,4.22 -0.37,8.6 -1.11,13.13 -0.74,4.53 -1.85,9.23 -3.32,14.07l-128.76 0 0 -22.14 117.68 0 -11.07 8.85c0.63,-2.53 1.11,-5.06 1.43,-7.59 0.31,-2.53 0.48,-4.96 0.48,-7.28 0,-7.59 -1.53,-14.23 -4.59,-19.93 -3.06,-5.7 -7.43,-10.12 -13.12,-13.29 -5.7,-3.16 -12.55,-4.75 -20.57,-4.75 -10.33,0 -19.14,2.06 -26.42,6.17 -7.27,4.11 -13.18,9.65 -17.71,16.61 -4.54,6.96 -7.8,14.71 -9.8,23.25 -2,8.54 -3.01,17.14 -3.01,25.79 0,9.49 1.96,17.87 5.85,25.15 3.9,7.27 9.34,12.97 16.29,17.08 6.96,4.11 15.18,6.16 24.67,6.16 10.75,-0.21 19.62,-2.53 26.57,-6.96 6.96,-4.43 12.66,-10.23 17.08,-17.39l19.93 13.29c-4.64,6.75 -10.23,12.6 -16.76,17.56 -6.54,4.96 -13.97,8.75 -22.3,11.39 -8.33,2.63 -17.45,3.95 -27.36,3.95z"/>
   <path id="_2" class="fil1 str0" d="M634.72 524.94c-9.06,0 -17.56,-1.21 -25.46,-3.63 -7.91,-2.43 -14.87,-5.85 -20.88,-10.29 -6.01,-4.43 -10.97,-9.75 -14.86,-15.98 -3.9,-6.22 -6.59,-13.23 -8.07,-21.03l25.31 -8.86c2.32,11.81 6.9,21.04 13.76,27.68 6.85,6.65 17.56,9.97 32.11,9.97 8.01,0 15.6,-1.43 22.78,-4.27 7.17,-2.84 13.5,-7.8 18.98,-14.87 5.49,-7.06 9.59,-17.03 12.34,-29.89l7.91 -35.75 4.11 -3.8c-3.16,11.6 -9.81,21.03 -19.93,28.31 -10.12,7.28 -21.82,10.91 -35.11,10.91 -12.23,0 -23.2,-3.06 -32.9,-9.17 -9.7,-6.12 -17.29,-14.39 -22.78,-24.83 -5.48,-10.44 -8.22,-21.88 -8.22,-34.33 0,-13.29 2,-25.36 6.01,-36.22 4.01,-10.86 9.59,-20.29 16.77,-28.31 7.17,-8.01 15.66,-14.18 25.46,-18.5 9.81,-4.32 20.41,-6.48 31.8,-6.48 10.75,0 20.19,2.05 28.31,6.16 8.12,4.11 14.6,9.91 19.45,17.4 4.85,7.48 7.49,16.29 7.91,26.41l-4.75 2.53 11.39 -49.35 25.3 0 -37.01 157.86c-3.8,16.24 -9.55,29.37 -17.25,39.39 -7.69,10.02 -16.82,17.35 -27.36,21.98 -10.54,4.64 -22.25,6.96 -35.12,6.96zm19.62 -93.32c9.91,0 18.87,-2.95 26.89,-8.86 8.02,-5.91 14.39,-13.97 19.14,-24.2 4.75,-10.23 7.12,-21.88 7.12,-34.96 0,-9.49 -1.69,-17.66 -5.07,-24.52 -3.37,-6.85 -8.22,-12.18 -14.55,-15.98 -6.33,-3.8 -13.82,-5.7 -22.46,-5.7 -10.97,0 -20.67,2.8 -29.11,8.39 -8.43,5.59 -15.08,13.4 -19.93,23.41 -4.85,10.02 -7.28,21.77 -7.28,35.27 0,13.71 4.01,24.99 12.02,33.85 8.01,8.85 19.09,13.29 33.21,13.29z"/>
   <path id="_3" class="fil1 str0" d="M807.08 268.38c-5.06,0 -9.17,-1.53 -12.34,-4.59 -3.16,-3.06 -4.75,-7.01 -4.75,-11.86 0,-6.54 1.96,-11.76 5.85,-15.66 3.9,-3.9 8.6,-5.85 14.08,-5.85 5.06,0 9.17,1.53 12.34,4.59 3.16,3.06 4.75,7.01 4.75,11.86 0,6.54 -1.96,11.76 -5.85,15.66 -3.9,3.9 -8.6,5.85 -14.08,5.85zm2.85 30.36l-36.7 158.18 -25.31 0 36.7 -158.18 25.31 0z"/>
   <path id="_4" class="fil1 str0" d="M876.3 460.41c-12.23,0 -23.25,-1.9 -33.06,-5.7 -9.8,-3.8 -18.13,-9.17 -24.99,-16.13 -6.86,-6.96 -12.08,-15.19 -15.66,-24.68l24.04 -10.44c4.01,11.6 10.23,20.3 18.66,26.1 8.44,5.8 19.19,8.7 32.27,8.7 11.18,0 19.66,-2.48 25.47,-7.43 5.8,-4.96 8.7,-11.02 8.7,-18.19 0,-5.49 -1.58,-9.8 -4.75,-12.97 -3.16,-3.16 -8.12,-5.7 -14.87,-7.6l-28.16 -7.9c-13.08,-3.58 -22.88,-9.02 -29.42,-16.29 -6.54,-7.28 -9.8,-15.66 -9.8,-25.15 0,-8.86 2.42,-16.82 7.27,-23.89 4.85,-7.06 11.81,-12.7 20.88,-16.93 9.06,-4.22 19.82,-6.32 32.26,-6.32 14.97,0 28.16,3.37 39.54,10.12 11.39,6.75 19.51,16.55 24.36,29.42l-23.09 11.07c-1.9,-5.9 -4.85,-11.02 -8.86,-15.34 -4.01,-4.32 -8.81,-7.65 -14.39,-9.97 -5.59,-2.32 -11.97,-3.48 -19.14,-3.48 -11.6,0 -20.19,2.11 -25.78,6.33 -5.59,4.22 -8.39,9.81 -8.39,16.77 0,5.91 2.06,10.6 6.17,14.07 4.11,3.48 9.23,6.06 15.34,7.75l31 8.85c10.76,2.95 19.25,7.81 25.47,14.56 6.23,6.75 9.34,14.55 9.34,23.4 0,10.55 -2.64,19.67 -7.91,27.37 -5.28,7.7 -12.45,13.6 -21.51,17.71 -9.07,4.11 -19.4,6.17 -31.01,6.17z"/>
   <path id="_5" class="fil1 str0" d="M1008.16 459.46c-10.12,0 -18.77,-2 -25.94,-6.02 -7.17,-4.01 -12.23,-9.8 -15.19,-17.39 -2.95,-7.59 -3.27,-16.66 -0.95,-27.21l33.22 -144.89 27.52 -7.91 -36.06 154.06c-2.11,9.7 -0.79,16.61 3.95,20.72 4.75,4.11 10.71,6.17 17.88,6.17 5.27,0 9.91,-0.74 13.92,-2.22 4.01,-1.47 7.48,-3.37 10.44,-5.69l5.07 20.88c-5.28,3.58 -10.65,6.06 -16.13,7.43 -5.49,1.37 -11.39,2.06 -17.72,2.06zm-53.77 -138.88l5.06 -21.83 106.29 0 -5.06 21.83 -106.29 0z"/>
   <path id="_6" class="fil1 str0" d="M1125.15 459.77c-14.56,0 -27.05,-3.16 -37.49,-9.49 -10.44,-6.33 -18.4,-14.87 -23.88,-25.62 -5.49,-10.76 -8.23,-22.78 -8.23,-36.07 0,-16.45 3.27,-31.74 9.81,-45.87 6.54,-14.13 16.08,-25.47 28.62,-34.01 12.55,-8.54 27.79,-12.81 45.71,-12.81 12.87,0 23.89,2.63 33.06,7.91 9.17,5.28 16.19,12.49 21.03,21.67 4.85,9.17 7.28,19.56 7.28,31.16 0,4.22 -0.37,8.6 -1.11,13.13 -0.74,4.53 -1.85,9.23 -3.32,14.07l-128.76 0 0 -22.14 117.68 0 -11.07 8.85c0.63,-2.53 1.11,-5.06 1.43,-7.59 0.31,-2.53 0.48,-4.96 0.48,-7.28 0,-7.59 -1.53,-14.23 -4.59,-19.93 -3.06,-5.7 -7.43,-10.12 -13.12,-13.29 -5.7,-3.16 -12.55,-4.75 -20.57,-4.75 -10.33,0 -19.14,2.06 -26.42,6.17 -7.27,4.11 -13.18,9.65 -17.71,16.61 -4.54,6.96 -7.8,14.71 -9.8,23.25 -2,8.54 -3.01,17.14 -3.01,25.79 0,9.49 1.96,17.87 5.85,25.15 3.9,7.27 9.34,12.97 16.29,17.08 6.96,4.11 15.18,6.16 24.67,6.16 10.75,-0.21 19.62,-2.53 26.57,-6.96 6.96,-4.43 12.66,-10.23 17.08,-17.39l19.93 13.29c-4.64,6.75 -10.23,12.6 -16.76,17.56 -6.54,4.96 -13.97,8.75 -22.3,11.39 -8.33,2.63 -17.45,3.95 -27.36,3.95z"/>
   <path id="_7" class="fil1 str0" d="M1205.43 456.92l36.7 -158.18 20.57 0 -3.48 36.39 -3.8 -2.21c3.37,-7.81 8.01,-14.5 13.92,-20.09 5.91,-5.59 12.6,-9.86 20.09,-12.81 7.49,-2.95 14.92,-4.43 22.3,-4.43 3.37,0 6.38,0.21 9.02,0.63 2.63,0.42 5,1.16 7.12,2.21l-7.59 24.04c-2.11,-1.05 -4.48,-1.85 -7.12,-2.37 -2.63,-0.53 -5.74,-0.79 -9.33,-0.79 -8.02,0 -15.55,1.85 -22.62,5.53 -7.06,3.69 -13.23,9.34 -18.5,16.93 -5.28,7.59 -9.28,17.4 -12.02,29.42l-19.93 85.73 -25.31 0z"/>
   <polygon id="_8" class="fil1 str0" points="1409.1,456.92 1457.5,248.14 1487.87,248.14 1539.75,387.33 1553.35,429.09 1553.67,429.09 1560.31,395.55 1594.48,248.14 1618.52,248.14 1570.12,456.92 1540.06,456.92 1487.23,317.1 1474.27,275.98 1473.95,275.98 1467.31,309.51 1433.14,456.92 "/>
   <path id="_9" class="fil1 str0" d="M1684.89 459.77c-15.18,0 -28.1,-3.21 -38.75,-9.65 -10.65,-6.43 -18.77,-15.08 -24.36,-25.94 -5.59,-10.86 -8.39,-22.72 -8.39,-35.59 0,-18.13 3.48,-34.17 10.44,-48.08 6.96,-13.92 16.55,-24.84 28.79,-32.75 12.23,-7.9 26.36,-11.86 42.39,-11.86 15.4,0 28.37,3.22 38.91,9.65 10.54,6.44 18.56,14.98 24.04,25.62 5.49,10.65 8.23,22.51 8.23,35.59 0,17.92 -3.43,33.9 -10.29,47.93 -6.85,14.02 -16.4,25.04 -28.62,33.06 -12.23,8.01 -26.36,12.02 -42.39,12.02zm0.95 -21.83c7.59,0 14.71,-1.63 21.35,-4.9 6.64,-3.27 12.49,-8.01 17.56,-14.23 5.06,-6.23 8.96,-13.66 11.71,-22.3 2.74,-8.65 4.11,-18.24 4.11,-28.79 0,-9.28 -1.64,-17.67 -4.91,-25.15 -3.27,-7.49 -8.33,-13.5 -15.18,-18.03 -6.86,-4.54 -15.66,-6.8 -26.42,-6.8 -7.59,0 -14.76,1.64 -21.51,4.9 -6.75,3.27 -12.6,7.96 -17.56,14.08 -4.96,6.11 -8.85,13.5 -11.71,22.14 -2.84,8.65 -4.27,18.24 -4.27,28.79 0,9.07 1.69,17.46 5.07,25.15 3.37,7.7 8.54,13.82 15.5,18.35 6.96,4.54 15.71,6.8 26.26,6.8z"/>
   <polygon id="_10" class="fil1 str0" points="1788.92,456.92 1771.83,298.75 1796.19,298.75 1808.21,425.29 1874.96,298.75 1900.27,298.75 1916.4,427.19 1984.73,298.75 2011.63,298.75 1924.31,456.92 1899,456.92 1881.61,331.34 1814.54,456.92 "/>
   <path id="_11" class="fil1 str0" d="M2007.77 391.13l7.59 -52.52 20.88 -90.47 27.21 0 -20.88 90.47 -16.45 52.52 -18.35 0zm-2.53 68.96c-5.28,0 -9.65,-1.64 -13.13,-4.9 -3.48,-3.27 -5.22,-7.54 -5.22,-12.81 0,-7.17 2.11,-12.87 6.33,-17.08 4.22,-4.22 9.28,-6.33 15.19,-6.33 5.27,0 9.65,1.64 13.12,4.9 3.48,3.27 5.22,7.54 5.22,12.81 0,7.17 -2.06,12.87 -6.16,17.08 -4.11,4.22 -9.23,6.33 -15.34,6.33z"/>
  </g>
 </g>
</svg>
