<?xml version="1.0" encoding="UTF-8"?>
<!DOCTYPE svg PUBLIC "-//W3C//DTD SVG 1.1//EN" "http://www.w3.org/Graphics/SVG/1.1/DTD/svg11.dtd">
<!-- Creator: CorelDRAW (OEM Version) -->
<svg xmlns="http://www.w3.org/2000/svg" xml:space="preserve" width="1.34924in" height="0.444937in" version="1.1" style="shape-rendering:geometricPrecision; text-rendering:geometricPrecision; image-rendering:optimizeQuality; fill-rule:evenodd; clip-rule:evenodd"
viewBox="0 0 1152.12 379.93"
 xmlns:xlink="http://www.w3.org/1999/xlink"
 xmlns:xodm="http://www.corel.com/coreldraw/odm/2003">
 <defs>
  <style type="text/css">
   <![CDATA[
    .str0 {stroke:#00AFEF;stroke-width:5.93;stroke-miterlimit:2.61313}
    .fil1 {fill:#FEFEFE;fill-rule:nonzero}
    .fil0 {fill:#00AFEF;fill-rule:nonzero}
   ]]>
  </style>
 </defs>
 <g id="Layer_x0020_1">
  <metadata id="CorelCorpID_0Corel-Layer"/>
  <g id="_1935214452864">
   <path class="fil0 str0" d="M76.57 376.95c-2.96,0 -5.85,-0.04 -8.79,-0.1 -6.09,-0.08 -12.16,-0.61 -18.17,-1.59 -5.6,-0.97 -11.03,-2.78 -16.1,-5.36 -5.03,-2.56 -9.61,-5.92 -13.58,-9.94 -4.02,-3.98 -7.38,-8.59 -9.92,-13.66 -2.57,-5.1 -4.35,-10.56 -5.28,-16.2 -1,-6.06 -1.54,-12.19 -1.62,-18.34 -0.06,-2.06 -0.14,-8.93 -0.14,-8.93l0 -225.86c0,0 0.08,-6.76 0.14,-8.75 0.07,-6.13 0.61,-12.25 1.61,-18.3 0.93,-5.65 2.71,-11.14 5.28,-16.25 2.53,-5.06 5.87,-9.68 9.87,-13.67 4,-4.03 8.6,-7.4 13.63,-10 5.06,-2.57 10.48,-4.36 16.07,-5.32 6.03,-0.99 12.12,-1.53 18.23,-1.6l8.77 -0.12 998.93 0 8.88 0.12c6.05,0.07 12.09,0.6 18.06,1.59 5.65,0.96 11.12,2.77 16.24,5.36 10.09,5.23 18.29,13.5 23.47,23.66 2.52,5.08 4.29,10.52 5.2,16.12 1.01,6.1 1.56,12.27 1.68,18.45 0.03,2.77 0.03,5.75 0.03,8.7 0.08,3.67 0.08,7.16 0.08,10.68l0 204.62c0,3.55 0,7.02 -0.08,10.51 0,3.18 0,6.09 -0.04,9.09 -0.11,6.07 -0.67,12.13 -1.65,18.12 -0.91,5.68 -2.68,11.19 -5.26,16.33 -2.56,5.01 -5.89,9.58 -9.86,13.55 -3.98,4.04 -8.57,7.42 -13.61,10 -5.11,2.6 -10.57,4.41 -16.21,5.38 -6.01,0.99 -12.09,1.52 -18.17,1.59 -2.91,0.07 -5.82,0.1 -8.73,0.1l-10.53 0.02 -988.45 -0.02z"/>
   <polygon class="fil1" points="196.54,239.96 168.22,139.98 206.24,139.98 217.9,212.23 231.99,139.98 262.29,139.98 277.13,211.78 288.49,139.98 325.15,139.98 296.67,239.96 259.26,239.96 251.38,202.39 247.44,176.79 246.99,176.79 243.05,202.39 235.32,239.96 "/>
   <polygon id="_1" class="fil1" points="350.57,239.96 350.57,139.98 433.58,139.98 433.58,165.88 385.86,165.88 385.86,178.3 424.34,178.3 424.34,202.24 385.86,202.24 385.86,214.05 435.4,214.05 435.4,239.96 "/>
   <path id="_2" class="fil1" d="M464.3 239.96l0 -99.98 57.26 0c12.62,0.1 22.02,2.35 28.18,6.74 6.16,4.39 9.24,11.03 9.24,19.92 0,5.96 -1.82,11.01 -5.45,15.15 -3.63,4.14 -9.34,6.76 -17.12,7.88l0 0.15c8.69,0.91 15.05,3.48 19.09,7.73 4.04,4.24 6.06,9.59 6.06,16.06 0,8.79 -2.95,15.38 -8.86,19.77 -5.91,4.39 -14.97,6.59 -27.19,6.59l-61.2 0zm33.78 -23.03l18.03 0c3.13,0 5.48,-0.63 7.04,-1.9 1.57,-1.26 2.35,-3.1 2.35,-5.53 0,-2.32 -0.78,-4.09 -2.35,-5.3 -1.56,-1.21 -3.91,-1.82 -7.04,-1.82l-18.03 0 0 14.54zm0 -38.18l15.75 0c6.06,0 9.09,-2.42 9.09,-7.27 0,-4.85 -3.03,-7.27 -9.09,-7.27l-15.75 0 0 14.54z"/>
   <path id="_3" class="fil1" d="M633.62 138.46c9.59,0 18.2,1.19 25.83,3.56 7.62,2.37 14.37,5.93 20.22,10.68l-14.24 22.72c-4.74,-3.33 -9.72,-6.01 -14.92,-8.03 -5.2,-2.02 -10.83,-3.03 -16.89,-3.03 -2.63,0 -4.72,0.2 -6.29,0.61 -1.57,0.4 -2.68,0.96 -3.33,1.66 -0.66,0.71 -0.99,1.52 -0.99,2.42 0,1.21 0.93,2.12 2.8,2.73 1.87,0.61 4.22,1.26 7.04,1.97l13.79 3.18c10.2,2.32 17.9,5.76 23.1,10.3 5.2,4.55 7.8,10.86 7.8,18.93 0,8.08 -1.97,14.72 -5.91,19.92 -3.94,5.2 -9.27,9.06 -15.98,11.59 -6.72,2.52 -14.31,3.79 -22.8,3.79 -6.36,0 -12.72,-0.58 -19.09,-1.74 -6.36,-1.16 -12.27,-2.88 -17.72,-5.15 -5.46,-2.27 -10.15,-5.02 -14.09,-8.25l13.93 -23.18c2.93,2.32 6.46,4.42 10.61,6.29 4.14,1.87 8.43,3.36 12.88,4.47 4.44,1.11 8.58,1.66 12.42,1.66 2.42,0 4.34,-0.2 5.76,-0.61 1.42,-0.4 2.4,-0.93 2.96,-1.59 0.55,-0.66 0.83,-1.44 0.83,-2.35 0,-1.41 -0.58,-2.47 -1.74,-3.18 -1.16,-0.71 -3.26,-1.42 -6.29,-2.12l-15.15 -3.33c-5.35,-1.21 -10.45,-2.83 -15.3,-4.85 -4.85,-2.02 -8.78,-4.98 -11.81,-8.86 -3.03,-3.89 -4.55,-9.16 -4.55,-15.83 0,-6.87 1.84,-12.88 5.53,-18.03 3.69,-5.15 9.04,-9.16 16.06,-12.05 7.02,-2.88 15.53,-4.32 25.53,-4.32z"/>
   <polygon id="_4" class="fil1" points="742.2,139.98 742.2,239.96 706.91,239.96 706.91,139.98 "/>
   <polygon id="_5" class="fil1" points="869.57,139.98 869.57,165.88 838.36,165.88 838.36,239.96 803.07,239.96 803.07,165.88 771.71,165.88 771.71,139.98 "/>
   <polygon id="_6" class="fil1" points="899.07,239.96 899.07,139.98 982.09,139.98 982.09,165.88 934.37,165.88 934.37,178.3 972.85,178.3 972.85,202.24 934.37,202.24 934.37,214.05 983.91,214.05 983.91,239.96 "/>
  </g>
 </g>
</svg>
