<?xml version="1.0" encoding="UTF-8"?>
<!DOCTYPE svg PUBLIC "-//W3C//DTD SVG 1.1//EN" "http://www.w3.org/Graphics/SVG/1.1/DTD/svg11.dtd">
<!-- Creator: CorelDRAW (OEM Version) -->
<svg xmlns="http://www.w3.org/2000/svg" xml:space="preserve" width="1.34924in" height="0.444937in" version="1.1" style="shape-rendering:geometricPrecision; text-rendering:geometricPrecision; image-rendering:optimizeQuality; fill-rule:evenodd; clip-rule:evenodd"
viewBox="0 0 1152.12 379.93"
 xmlns:xlink="http://www.w3.org/1999/xlink"
 xmlns:xodm="http://www.corel.com/coreldraw/odm/2003">
 <defs>
  <style type="text/css">
   <![CDATA[
    .str0 {stroke:#00A859;stroke-width:5.93;stroke-miterlimit:2.61313}
    .fil1 {fill:#FEFEFE;fill-rule:nonzero}
    .fil0 {fill:#00A859;fill-rule:nonzero}
   ]]>
  </style>
 </defs>
 <g id="Layer_x0020_1">
  <metadata id="CorelCorpID_0Corel-Layer"/>
  <g id="_1935215219472">
   <path class="fil0 str0" d="M76.57 376.95c-2.96,0 -5.85,-0.04 -8.79,-0.1 -6.09,-0.08 -12.16,-0.61 -18.17,-1.59 -5.6,-0.97 -11.03,-2.78 -16.1,-5.36 -5.03,-2.56 -9.61,-5.92 -13.58,-9.94 -4.02,-3.98 -7.38,-8.59 -9.92,-13.66 -2.57,-5.1 -4.35,-10.56 -5.28,-16.2 -1,-6.06 -1.54,-12.19 -1.62,-18.34 -0.06,-2.06 -0.14,-8.93 -0.14,-8.93l0 -225.86c0,0 0.08,-6.76 0.14,-8.75 0.07,-6.13 0.61,-12.25 1.61,-18.3 0.93,-5.65 2.71,-11.14 5.28,-16.25 2.53,-5.06 5.87,-9.68 9.87,-13.67 4,-4.03 8.6,-7.4 13.63,-10 5.06,-2.57 10.48,-4.36 16.07,-5.32 6.03,-0.99 12.12,-1.53 18.23,-1.6l8.77 -0.12 998.93 0 8.88 0.12c6.05,0.07 12.09,0.6 18.06,1.59 5.65,0.96 11.12,2.77 16.24,5.36 10.09,5.23 18.29,13.5 23.47,23.66 2.52,5.08 4.29,10.52 5.2,16.12 1.01,6.1 1.56,12.27 1.68,18.45 0.03,2.77 0.03,5.75 0.03,8.7 0.08,3.67 0.08,7.16 0.08,10.68l0 204.62c0,3.55 0,7.02 -0.08,10.51 0,3.18 0,6.09 -0.04,9.09 -0.11,6.07 -0.67,12.13 -1.65,18.12 -0.91,5.68 -2.68,11.19 -5.26,16.33 -2.56,5.01 -5.89,9.58 -9.86,13.55 -3.98,4.04 -8.57,7.42 -13.61,10 -5.11,2.6 -10.57,4.41 -16.21,5.38 -6.01,0.99 -12.09,1.52 -18.17,1.59 -2.91,0.07 -5.82,0.1 -8.73,0.1l-10.53 0.02 -988.45 -0.02z"/>
   <polygon class="fil1" points="230.62,148.58 230.62,231.35 205.17,231.35 205.17,202.63 205.54,174.79 205.17,174.79 189.12,231.35 165.79,231.35 149.99,174.79 149.49,174.79 149.86,202.63 149.86,231.35 124.28,231.35 124.28,148.58 165.16,148.58 174.69,185.33 178.33,200.75 178.58,200.75 182.22,185.33 191.75,148.58 "/>
   <path id="_1" class="fil1" d="M298.31 147.33c8.78,0 16.3,1.67 22.57,5.02 6.27,3.35 11.08,8.19 14.42,14.55 3.35,6.35 5.02,14.05 5.02,23.08 0,9.03 -1.67,16.72 -5.02,23.08 -3.35,6.35 -8.15,11.2 -14.42,14.55 -6.27,3.35 -13.79,5.02 -22.57,5.02 -8.7,0 -16.2,-1.67 -22.51,-5.02 -6.31,-3.35 -11.16,-8.19 -14.55,-14.55 -3.39,-6.35 -5.08,-14.05 -5.08,-23.08 0,-9.03 1.69,-16.72 5.08,-23.08 3.39,-6.35 8.23,-11.2 14.55,-14.55 6.31,-3.35 13.81,-5.02 22.51,-5.02zm0 21.95c-2.84,0 -5.16,0.73 -6.96,2.2 -1.8,1.46 -3.13,3.7 -4.01,6.71 -0.88,3.01 -1.32,6.94 -1.32,11.79 0,4.77 0.44,8.67 1.32,11.73 0.88,3.05 2.22,5.31 4.01,6.77 1.8,1.46 4.12,2.2 6.96,2.2 2.84,0 5.16,-0.73 6.96,-2.2 1.8,-1.46 3.11,-3.72 3.95,-6.77 0.84,-3.05 1.25,-6.96 1.25,-11.73 0,-4.85 -0.42,-8.78 -1.25,-11.79 -0.84,-3.01 -2.15,-5.25 -3.95,-6.71 -1.8,-1.46 -4.12,-2.2 -6.96,-2.2z"/>
   <path id="_2" class="fil1" d="M365.88 231.35l0 -82.77 47.4 0c10.45,0.08 18.22,1.94 23.32,5.58 5.1,3.64 7.65,9.13 7.65,16.49 0,4.94 -1.51,9.11 -4.51,12.54 -3.01,3.43 -7.74,5.6 -14.17,6.52l0 0.13c7.19,0.75 12.46,2.88 15.8,6.39 3.34,3.51 5.02,7.94 5.02,13.29 0,7.27 -2.45,12.73 -7.34,16.37 -4.89,3.64 -12.39,5.46 -22.51,5.46l-50.67 0zm27.97 -19.06l14.92 0c2.59,0 4.54,-0.52 5.83,-1.57 1.3,-1.05 1.95,-2.57 1.95,-4.58 0,-1.92 -0.65,-3.39 -1.95,-4.39 -1.29,-1 -3.24,-1.5 -5.83,-1.5l-14.92 0 0 12.04zm0 -31.6l13.04 0c5.02,0 7.52,-2.01 7.52,-6.02 0,-4.01 -2.51,-6.02 -7.52,-6.02l-13.04 0 0 12.04z"/>
   <polygon id="_3" class="fil1" points="499.03,148.58 499.03,231.35 469.81,231.35 469.81,148.58 "/>
   <polygon id="_4" class="fil1" points="556.43,209.9 593.93,209.9 593.93,231.35 527.21,231.35 527.21,148.58 556.43,148.58 "/>
   <polygon id="_5" class="fil1" points="618.73,231.35 618.73,148.58 687.45,148.58 687.45,170.03 647.95,170.03 647.95,180.31 679.8,180.31 679.8,200.13 647.95,200.13 647.95,209.9 688.96,209.9 688.96,231.35 "/>
   <path id="_6" class="fil1" d="M824.37 231.35l-29.85 0 -3.76 -15.8 -22.32 0 -3.89 15.8 -29.09 0 26.84 -82.77 35.11 0 26.96 82.77zm-51.54 -33.98l13.67 0 -6.77 -28.72 -6.9 28.72z"/>
   <path id="_7" class="fil1" d="M888.92 148.58c7.44,0 13.75,1.13 18.94,3.39 5.18,2.26 9.11,5.56 11.79,9.91 2.68,4.35 4.01,9.66 4.01,15.93 0,6.27 -1.34,11.58 -4.01,15.92 -2.67,4.35 -6.6,7.65 -11.79,9.91 -5.18,2.26 -11.49,3.39 -18.94,3.39l-14.67 0 0 24.33 -29.22 0 0 -82.77 43.89 0zm-4.76 37.75c3.18,0 5.68,-0.69 7.52,-2.07 1.84,-1.38 2.76,-3.53 2.76,-6.46 0,-2.93 -0.92,-5.08 -2.76,-6.46 -1.84,-1.38 -4.35,-2.07 -7.52,-2.07l-9.91 0 0 17.05 9.91 0z"/>
   <path id="_8" class="fil1" d="M993.1 148.58c7.44,0 13.75,1.13 18.94,3.39 5.18,2.26 9.11,5.56 11.79,9.91 2.68,4.35 4.01,9.66 4.01,15.93 0,6.27 -1.34,11.58 -4.01,15.92 -2.67,4.35 -6.6,7.65 -11.79,9.91 -5.18,2.26 -11.49,3.39 -18.94,3.39l-14.67 0 0 24.33 -29.22 0 0 -82.77 43.89 0zm-4.76 37.75c3.18,0 5.68,-0.69 7.52,-2.07 1.84,-1.38 2.76,-3.53 2.76,-6.46 0,-2.93 -0.92,-5.08 -2.76,-6.46 -1.84,-1.38 -4.35,-2.07 -7.52,-2.07l-9.91 0 0 17.05 9.91 0z"/>
  </g>
 </g>
</svg>
